#!OML:ASF F:\VICON\USERDATA\INSTALL\rory3\rory3.ASF
:FULLY-SPECIFIED
:DEGREES
633
root -3.14394 17.0775 -8.01877 92.2346 51.6959 44.8438
lowerback -3.51144 3.80558 11.2567
upperback -13.5762 6.339 0.040703
thorax -11.8141 2.19578 -6.60621
lowerneck -8.34358 -17.084 -10.8369
upperneck -9.14731 -21.3919 19.2201
head 1.94224 -10.4837 5.99697
rclavicle -1.11319e-014 -4.13472e-014
rhumerus 68.674 23.8789 1.55518
rradius 44.958
rwrist 0.198553
rhand 21.6148 10.661
rfingers 7.12502
rthumb 46.0364 -12.4184
lclavicle -1.11319e-014 -4.13472e-014
lhumerus -27.5458 -18.6377 8.91054
lradius 18.6542
lwrist -42.196
lhand -0.40475 24.7193
lfingers 7.12502
lthumb 25.2026 53.0752
rfemur -64.1786 14.8982 -32.1753
rtibia 38.4733
rfoot -55.7379 -46.8802
rtoes 29.6749
lfemur -15.3051 -16.1309 -5.75832
ltibia 10.6359
lfoot 3.40184 36.8494
ltoes 46.3206
634
root -3.10825 17.0855 -7.97485 94.8459 51.4949 46.6715
lowerback -4.61955 3.89 11.0085
upperback -13.9984 6.38887 -0.00436123
thorax -11.6628 2.27344 -6.44623
lowerneck -8.37262 -17.3714 -11.4102
upperneck -9.6856 -21.6496 20.4087
head 2.05118 -10.6068 6.37307
rclavicle -6.67916e-014 -1.30403e-013
rhumerus 69.672 22.6114 2.36248
rradius 47.1694
rwrist -2.82526
rhand 21.8638 9.3774
rfingers 7.12502
rthumb 46.2672 -13.605
lclavicle -6.67916e-014 -1.30403e-013
lhumerus -27.8478 -19.17 8.80458
lradius 18.8439
lwrist -41.9726
lhand -0.633874 25.2081
lfingers 7.12502
lthumb 24.9831 53.5946
rfemur -63.8343 12.3803 -31.3954
rtibia 38.6702
rfoot -53.5934 -46.4162
rtoes 28.7338
lfemur -11.3896 -15.339 -6.60461
ltibia 8.09521
lfoot 9.06179 39.7575
ltoes 39.2987
635
root -3.07732 17.0718 -7.92433 96.3402 51.2741 47.6811
lowerback -5.26306 4.06682 10.7393
upperback -14.2162 6.58827 -0.0987689
thorax -11.51 2.4201 -6.3589
lowerneck -8.56026 -17.5467 -11.3058
upperneck -10.3511 -21.7601 21.1495
head 1.99529 -10.6742 6.55991
rclavicle 4.92986e-014 -5.725e-014
rhumerus 70.3118 21.0981 2.9915
rradius 49.6349
rwrist -6.44334
rhand 21.8724 7.28349
rfingers 7.12502
rthumb 46.2752 -15.6956
lclavicle 4.92986e-014 -5.725e-014
lhumerus -27.7526 -18.2599 8.12046
lradius 18.7329
lwrist -43.0858
lhand -0.671015 24.6489
lfingers 7.12502
lthumb 24.9475 53.0405
rfemur -63.6884 10.6744 -30.7324
rtibia 38.8329
rfoot -52.1356 -45.7353
rtoes 28.4593
lfemur -6.82182 -14.1133 -7.48162
ltibia 5.72875
lfoot 10.0038 42.2797
ltoes 39.0219
636
root -3.03846 17.0955 -7.91623 98.6713 52.3623 49.697
lowerback -5.71571 4.0554 12.0363
upperback -14.6716 6.69559 0.417401
thorax -11.7885 2.36113 -6.48971
lowerneck -8.48521 -17.4175 -11.1908
upperneck -10.864 -21.514 21.0688
head 1.77444 -10.5791 6.59173
rclavicle 4.77083e-015 1.36764e-013
rhumerus 71.3898 19.8385 4.05674
rradius 52.3006
rwrist -9.94197
rhand 21.9055 5.93948
rfingers 7.12502
rthumb 46.3059 -17.0266
lclavicle 4.77083e-015 1.36764e-013
lhumerus -28.6095 -19.2582 8.41225
lradius 18.6077
lwrist -42.6105
lhand -0.898467 24.3472
lfingers 7.12502
lthumb 24.7295 52.7688
rfemur -63.1302 9.23505 -28.9886
rtibia 38.8252
rfoot -51.7512 -45.4526
rtoes 28.5803
lfemur -2.9128 -13.27 -6.80858
ltibia 3.78575
lfoot 19.8639 42.6021
ltoes 32.6758
637
root -3.00189 17.097 -7.88598 100.354 52.9051 51.2067
lowerback -6.03556 4.07863 12.4117
upperback -14.9138 6.82191 0.997246
thorax -11.9378 2.42775 -6.04368
lowerneck -9.01366 -17.3766 -11.573
upperneck -10.962 -21.3643 21.1454
head 1.85661 -10.4651 6.64441
rclavicle -5.08889e-014 7.95139e-014
rhumerus 72.3446 18.1411 5.05079
rradius 54.9753
rwrist -13.0789
rhand 21.8234 5.18856
rfingers 7.12502
rthumb 46.2298 -17.8097
lclavicle -5.08889e-014 7.95139e-014
lhumerus -29.3227 -19.3869 8.57195
lradius 18.4081
lwrist -42.7656
lhand -1.4308 24.1301
lfingers 7.12502
lthumb 24.2192 52.6207
rfemur -62.7027 8.19466 -27.7917
rtibia 38.8649
rfoot -51.786 -45.1714
rtoes 29.0298
lfemur 2.43219 -12.1649 -6.64873
ltibia 1.27222e-014
lfoot 24.9568 43.3813
ltoes 32.7159
638
root -2.96842 17.1002 -7.87057 103.438 53.1971 53.7707
lowerback -6.70934 3.81534 12.4387
upperback -15.7737 6.60477 1.31172
thorax -12.7117 2.30643 -5.70714
lowerneck -8.40245 -17.1523 -10.8504
upperneck -11.6295 -21.0381 21.1877
head 1.45226 -10.3838 6.6948
rclavicle -3.18055e-014 1.59028e-013
rhumerus 73.067 17.1972 4.02718
rradius 56.3556
rwrist -15.0815
rhand 22.3631 5.43461
rfingers 7.12502
rthumb 46.7298 -17.3497
lclavicle -3.18055e-014 1.59028e-013
lhumerus -30.0068 -20.5581 8.09997
lradius 18.4786
lwrist -42.6792
lhand -1.58122 23.8689
lfingers 7.12502
lthumb 24.075 52.3787
rfemur -62.19 6.56251 -27.0821
rtibia 38.821
rfoot -52.2974 -44.8673
rtoes 29.8638
lfemur 4.81711 -11.5537 -6.29905
ltibia 1.27222e-014
lfoot 31.4019 41.1163
ltoes 27.9846
639
root -2.93631 17.1035 -7.84712 106.243 53.616 56.004
lowerback -7.84392 3.92054 12.3528
upperback -16.002 6.75691 2.04943
thorax -12.4073 2.50958 -4.76197
lowerneck -8.59329 -17.1831 -10.8386
upperneck -12.6032 -20.9249 20.9321
head 1.14149 -10.3562 6.67475
rclavicle 3.18055e-015 -4.45278e-014
rhumerus 73.4601 15.1234 4.189
rradius 58.2797
rwrist -17.3051
rhand 23.6403 5.83837
rfingers 7.12502
rthumb 47.91 -16.4163
lclavicle 3.18055e-015 -4.45278e-014
lhumerus -30.462 -21.147 9.03699
lradius 18.4289
lwrist -41.8958
lhand -1.78891 23.302
lfingers 7.12502
lthumb 23.8758 51.838
rfemur -61.9379 5.15505 -26.2495
rtibia 38.8313
rfoot -52.4905 -44.753
rtoes 30.2309
lfemur 7.29159 -10.6768 -5.72252
ltibia -1.43125e-014
lfoot 30.9855 43.9767
ltoes 31.7959
